# xmcd
#
# Track frame offsets:
#	150
#	14499
#	29240
#	37769
#	50882
#	63384
#	80428
#	90387
#	103880
#	114188
#	123836
#	131672
#
# Disc length: 1893 seconds
#
# Revision: 1
# Processed by: cddbd v1.5.2PL0 Copyright (c) Steve Scherf et al.
# Submitted via: audiograbber 1.83.01
#
DISCID=9d07630c
DTITLE=Smoky Mountain Recording Company - Radio Disc Vol.3
DYEAR=1900
DGENRE=Gospel
TTITLE0=The Principles - God Still Dries Our Tears
TTITLE1=Ricky Perkins - Come Down Out Of The Boat
TTITLE2=Faith Harmony Boys - Travelin' On Through Caanaan
TTITLE3=Eddie Anders - Mainstream
TTITLE4=The Fox Brothers - He Broke The Law
TTITLE5=Samson - Yeah Though I Walk Through The Valley
TTITLE6=His - Prayer Meeting On The Bayou
TTITLE7=Roger Fortner - Precious Lord Take My Hand
TTITLE8=Jamie Graves - Goodbye World Goodbye
TTITLE9=Gary Dillard - Amazing Grace
TTITLE10=Mark Moody - Carol Of The Bells
TTITLE11=Roger Fortner - What Child Is This
EXTD=
EXTT0=
EXTT1=
EXTT2=
EXTT3=
EXTT4=
EXTT5=
EXTT6=
EXTT7=
EXTT8=
EXTT9=
EXTT10=
EXTT11=
PLAYORDER=
